<svg width="126" height="68" viewBox="0 0 126 68" fill="none" xmlns="http://www.w3.org/2000/svg">
<g clip-path="url(#clip0_30_147)">
<path d="M0 8.5C0 3.80558 4.70101 0 10.5 0H115.5C121.299 0 126 3.80558 126 8.5V59.5C126 64.1944 121.299 68 115.5 68H10.5C4.70101 68 0 64.1944 0 59.5V8.5Z" fill="#E6E6E6"/>
<path d="M97.6774 53.3981C102.517 53.3981 104.794 51.9033 106.784 47.3723L115.5 27.5821H110.454L104.609 42.893H104.506L98.6615 27.6029H93.472L101.881 46.4391L101.43 47.5848C101.112 49.2248 99.2933 50.3947 97.2462 50.2737C96.8555 50.2737 96.0977 50.2409 95.7903 50.2081V53.3186C96.4157 53.3877 97.0476 53.4206 97.6774 53.4188V53.3981ZM80.8602 43.4875C78.2131 43.4875 76.5331 42.4506 76.5331 40.8815C76.5331 39.2554 78.1534 38.3084 81.2508 38.1581L86.7669 37.8764V39.3383C86.6452 41.7473 84.1327 43.6223 81.1569 43.5238C81.0565 43.5203 80.9583 43.5134 80.8602 43.5065V43.4875ZM79.5281 46.5583C82.5316 46.624 85.3409 45.3573 86.8501 43.2542H86.9526V46.3648H91.5465V33.4818C91.5465 29.7457 87.8556 27.3385 82.173 27.3385C76.9024 27.3385 73.0044 29.7785 72.8614 33.1328H77.3336C77.8673 31.4271 79.8696 30.3021 82.03 30.4922C85.0655 30.4922 86.7669 31.638 86.7669 33.7462V35.1736L80.5762 35.4726C74.8125 35.7543 71.6959 37.6638 71.6959 40.9852C71.6916 44.3533 74.9107 46.5773 79.526 46.5773L79.5281 46.5583ZM52.9062 23.8633H58.6272C62.935 23.8633 65.3964 25.7227 65.3964 28.994C65.3964 32.2653 62.935 34.1402 58.608 34.1402H52.9062V23.8633ZM47.943 20.4762V46.3596H52.9062V37.5359H59.7778C65.375 37.7796 70.1546 34.3044 70.4556 29.7733C70.4727 29.5159 70.4748 29.2601 70.462 29.0026C70.7267 24.5217 66.4552 20.7164 60.9199 20.5004C60.5933 20.4883 60.2688 20.49 59.9422 20.5021L47.943 20.4762ZM31.4695 25.3062C28.6175 25.1732 26.1776 26.6178 24.8242 26.6178C23.4708 26.6178 21.3787 25.3736 19.1224 25.4082C16.1338 25.4704 13.4099 26.8097 11.9647 28.9283C8.88858 33.2123 11.1642 39.5544 14.1378 43.0399C15.5937 44.768 17.3399 46.6603 19.6347 46.5929C21.8078 46.5272 22.6702 45.4472 25.2959 45.4472C27.9216 45.4472 28.7008 46.5929 30.9977 46.5583C33.3758 46.5255 34.8743 44.8302 36.3345 43.1021C37.3634 41.8786 38.1639 40.5394 38.7125 39.1275C35.9097 38.1356 34.093 35.9012 34.0781 33.4248C34.1208 31.2405 35.534 29.2255 37.8309 28.0798C36.3665 26.3967 34.0162 25.3633 31.4738 25.2907L31.4695 25.3062ZM29.6891 23.02C28.4403 24.2936 26.5298 25.0245 24.521 24.9952C24.3929 23.4088 25.059 21.8483 26.3675 20.6628C27.6697 19.4393 29.5056 18.6721 31.4908 18.5217C31.6317 20.153 30.9849 21.7636 29.6849 23.0148" fill="black"/>
</g>
<defs>
<clipPath id="clip0_30_147">
<rect width="126" height="68" rx="20" fill="white"/>
</clipPath>
</defs>
</svg>
