<svg width="31" height="29" viewBox="0 0 31 29" fill="none" xmlns="http://www.w3.org/2000/svg">
<path d="M15.5 25.375C18.1895 25.375 20.7958 24.5026 22.8748 22.9065C24.9538 21.3104 26.3769 19.0893 26.9016 16.6216C27.4263 14.154 27.0202 11.5925 25.7523 9.37356C24.4845 7.15466 22.4335 5.41564 19.9487 4.45281C17.4639 3.48998 14.6991 3.36292 12.1254 4.09327C9.55175 4.82363 7.32838 6.3662 5.83417 8.45817C4.33996 10.5501 3.66736 13.0621 3.93098 15.5659C4.19459 18.0698 5.37811 20.4107 7.27988 22.1898" stroke="#222222" stroke-linecap="round"/>
<path d="M20.6667 12.0835L15.5716 17.8033C14.9303 18.5231 14.6097 18.883 14.1888 18.9022C13.7678 18.9213 13.4158 18.5921 12.7118 17.9335L10.3334 15.7085" stroke="#222222" stroke-linecap="round"/>
</svg>
