<svg width="240" height="306" viewBox="0 0 240 306" fill="none" xmlns="http://www.w3.org/2000/svg">
<path d="M188.581 85.1138C192.311 79.3017 191.67 70.7551 187.054 65.9399C184.717 63.5018 181.766 62.453 178.879 62.8212C175.999 63.1884 173.305 64.9478 171.419 67.886L88.145 197.655L56.6913 167.577C54.2672 165.259 51.2774 164.371 48.4068 164.894C45.5469 165.415 42.9204 167.313 41.1382 170.343C37.6125 176.337 38.5235 184.846 43.3091 189.423L75.64 220.339C80.1347 224.637 85.6143 226.336 90.8938 225.519C96.1647 224.703 101.126 221.399 104.652 215.904L188.581 85.1138Z" fill="#203A82" stroke="#203A82" stroke-width="2" stroke-linecap="round"/>
</svg>
