<svg width="55" height="55" viewBox="0 0 55 55" fill="none" xmlns="http://www.w3.org/2000/svg">
<path d="M10.1998 31.8733L26.8157 47.4821C27.1401 47.7869 27.3023 47.9393 27.5003 47.9393C27.6983 47.9393 27.8606 47.7869 28.185 47.4821L44.8009 31.8733C46.6208 30.1637 47.5308 29.3088 48.1223 28.3996C49.7874 25.8399 50.0411 22.6106 48.7961 19.8223C48.3538 18.8319 47.5885 17.8454 46.0578 15.8726L45.3489 14.9588L45.3488 14.9588C43.7044 12.8393 42.8822 11.7795 42.1263 11.1796C38.701 8.46115 33.7276 8.99673 30.9597 12.3822C30.3488 13.1292 29.7711 14.3397 28.6156 16.7608L28.6156 16.7608C28.4354 17.1383 28.3453 17.3271 28.2582 17.4283C27.8593 17.8918 27.1414 17.8918 26.7424 17.4283C26.6553 17.3271 26.5652 17.1383 26.3851 16.7608L26.385 16.7608L26.385 16.7608C25.2295 14.3397 24.6518 13.1292 24.041 12.3822C21.273 8.99673 16.2996 8.46115 12.8743 11.1796C12.1185 11.7795 11.2962 12.8393 9.65179 14.9588L9.65178 14.9588L8.94284 15.8726C7.41217 17.8454 6.64683 18.8319 6.20458 19.8223C4.95953 22.6106 5.21321 25.8399 6.87838 28.3996C7.46986 29.3088 8.37984 30.1637 10.1998 31.8733Z" stroke="#33363F" stroke-width="2"/>
</svg>
