<svg width="125" height="67" viewBox="0 0 125 67" fill="none" xmlns="http://www.w3.org/2000/svg">
<g clip-path="url(#clip0_30_131)">
<path d="M0 8.375C0 3.74962 4.6637 0 10.4167 0H114.583C120.336 0 125 3.74962 125 8.375V58.625C125 63.2504 120.336 67 114.583 67H10.4167C4.6637 67 0 63.2504 0 58.625V8.375Z" fill="#FDEACE"/>
<path d="M75.1951 13.6667L48.6431 13.7102L49.8047 53.3335L76.3567 53.29L75.1951 13.6667Z" fill="#FF5F00"/>
<path d="M50.295 33.6323C50.0572 25.5703 54.4391 18.4123 61.3621 13.774C56.0745 10.4174 49.4654 8.39504 42.3208 8.40663C25.3949 8.43409 12.0342 19.743 12.4458 33.6937C12.8574 47.6443 26.8841 58.9088 43.81 58.8813C50.9545 58.8698 57.4437 56.8261 62.5328 53.4527C55.3388 48.9074 50.5329 41.6942 50.295 33.6323Z" fill="#EB001B"/>
<path d="M112.554 33.3065C112.966 47.2571 99.6047 58.566 82.6789 58.5935C75.5343 58.6051 68.9251 56.5827 63.6375 53.2261C70.6456 48.5877 74.9425 41.4298 74.7047 33.3679C74.4668 25.3059 69.6629 18.1628 62.4669 13.5474C67.5559 10.174 74.0451 8.13038 81.1897 8.11879C98.1156 8.09133 112.144 19.4259 112.554 33.3065Z" fill="#F79E1B"/>
</g>
<defs>
<clipPath id="clip0_30_131">
<rect width="125" height="67" rx="20" fill="white"/>
</clipPath>
</defs>
</svg>
