<svg width="118" height="69" viewBox="0 0 118 69" fill="none" xmlns="http://www.w3.org/2000/svg">
<g clip-path="url(#clip0_30_138)">
<path d="M0 8.625C0 3.86154 4.40253 0 9.83333 0H108.167C113.597 0 118 3.86154 118 8.625V60.375C118 65.1385 113.597 69 108.167 69H9.83333C4.40253 69 0 65.1385 0 60.375V8.625Z" fill="#CCDEFF"/>
<path d="M26.4784 24.8344C25.2459 24.0912 23.6376 23.7188 21.6534 23.7188H13.9718C13.3636 23.7188 13.0275 23.9856 12.9637 24.5187L9.84329 41.6994C9.81086 41.8681 9.85899 42.0224 9.98725 42.1627C10.1148 42.3033 10.2752 42.3732 10.4673 42.3732H14.116C14.7559 42.3732 15.1077 42.107 15.1722 41.5732L16.0363 36.9413C16.0678 36.7169 16.1804 36.5344 16.3725 36.3938C16.5644 36.2535 16.8045 36.1617 17.0925 36.1198C17.3806 36.0781 17.6522 36.057 17.9088 36.057C18.1645 36.057 18.4684 36.0712 18.8211 36.0992C19.1728 36.1271 19.397 36.1409 19.4932 36.1409C22.2455 36.1409 24.4059 35.4606 25.9745 34.0986C27.5423 32.7373 28.3271 30.8496 28.3271 28.4347C28.3271 26.7784 27.7104 25.5784 26.4784 24.8341V24.8344ZM22.5179 29.9933C22.3574 30.976 21.9418 31.6214 21.2697 31.9303C20.5974 32.2396 19.6373 32.3935 18.3892 32.3935L16.8048 32.4355L17.6211 27.9296C17.6848 27.6211 17.8928 27.4666 18.2451 27.4666H19.1576C20.4372 27.4666 21.3659 27.6284 21.9421 27.9507C22.5179 28.2738 22.71 28.9548 22.5179 29.9933V29.9933Z" fill="#003087"/>
<path d="M107.542 23.7188H103.99C103.637 23.7188 103.429 23.8732 103.366 24.1822L100.245 41.7001L100.197 41.7843C100.197 41.9254 100.261 42.0581 100.389 42.1845C100.516 42.3106 100.677 42.3738 100.869 42.3738H104.038C104.645 42.3738 104.981 42.1076 105.046 41.5739L108.167 24.3507V24.3089C108.167 23.9157 107.958 23.7193 107.542 23.7193V23.7188Z" fill="#009CDE"/>
<path d="M64.6219 30.4992C64.6219 30.3591 64.5576 30.2255 64.4304 30.0995C64.302 29.9733 64.1579 29.9097 63.9982 29.9097H60.3015C59.9487 29.9097 59.6607 30.0507 59.437 30.3307L54.3481 36.9001L52.2357 30.5836C52.0749 30.1348 51.7233 29.9097 51.1796 29.9097H47.5783C47.4179 29.9097 47.2739 29.973 47.1467 30.0995C47.0183 30.2255 46.9546 30.3594 46.9546 30.4992C46.9546 30.5557 47.2667 31.3836 47.8907 32.9837C48.5147 34.5844 49.1868 36.311 49.907 38.1639C50.6272 40.0165 51.003 40.9996 51.0352 41.111C48.4105 44.2557 47.0987 45.94 47.0987 46.1642C47.0987 46.5295 47.3063 46.7118 47.7228 46.7118H51.4195C51.7714 46.7118 52.0593 46.5717 52.2839 46.2909L64.5265 30.7938C64.59 30.7382 64.6219 30.6404 64.6219 30.499V30.4992Z" fill="#003087"/>
<path d="M99.0451 29.9097H95.3963C94.9477 29.9097 94.6767 30.3731 94.5806 31.2997C93.7473 30.1771 92.2281 29.615 90.0192 29.615C87.7148 29.615 85.7542 30.3731 84.1382 31.8891C82.5217 33.4051 81.7139 35.1883 81.7139 37.2374C81.7139 38.8941 82.2659 40.2134 83.3699 41.1956C84.4741 42.1789 85.9542 42.6695 87.8112 42.6695C88.7393 42.6695 89.6834 42.5008 90.6436 42.1642C91.6037 41.8274 92.3552 41.3784 92.9003 40.8167C92.9003 40.8449 92.8676 40.9708 92.8044 41.1953C92.7397 41.4203 92.7081 41.5893 92.7081 41.7006C92.7081 42.1503 92.9156 42.3743 93.3324 42.3743H96.6453C97.2526 42.3743 97.6051 42.1081 97.7008 41.5743L99.6695 30.5834C99.7011 30.4148 99.6532 30.2607 99.5254 30.1202C99.3967 29.9802 99.2371 29.9097 99.0451 29.9097V29.9097ZM92.78 38.2059C91.9638 38.9078 90.9795 39.2585 89.8274 39.2585C88.8988 39.2585 88.1473 39.0343 87.5709 38.5848C86.9945 38.1366 86.7064 37.5189 86.7064 36.732C86.7064 35.694 87.1066 34.8159 87.9071 34.1002C88.7061 33.3843 89.6993 33.0264 90.8835 33.0264C91.7789 33.0264 92.5232 33.258 93.1159 33.721C93.7074 34.1843 94.0044 34.823 94.0044 35.6374C94.0041 36.6479 93.5961 37.5044 92.78 38.2059Z" fill="#009CDE"/>
<path d="M44.5061 29.9097H40.8573C40.4085 29.9097 40.1371 30.3731 40.0409 31.2997C39.1768 30.1771 37.6563 29.615 35.4799 29.615C33.1755 29.615 31.2148 30.3731 29.5987 31.8891C27.9822 33.4051 27.1743 35.1883 27.1743 37.2374C27.1743 38.8941 27.7265 40.2134 28.8308 41.1956C29.935 42.1789 31.415 42.6695 33.2716 42.6695C34.1673 42.6695 35.0961 42.5008 36.0561 42.1642C37.0162 41.8274 37.7844 41.3784 38.3606 40.8167C38.2322 41.1533 38.1685 41.4482 38.1685 41.7006C38.1685 42.1503 38.3764 42.3743 38.7926 42.3743H42.1052C42.7129 42.3743 43.0653 42.1081 43.1615 41.5743L45.1298 30.5834C45.1613 30.4148 45.1135 30.2607 44.9858 30.1202C44.8577 29.9802 44.6979 29.9097 44.5061 29.9097V29.9097ZM38.2408 38.2267C37.4245 38.9153 36.4238 39.2585 35.2403 39.2585C34.3116 39.2585 33.5674 39.0343 33.0077 38.5848C32.4473 38.1366 32.1675 37.5189 32.1675 36.732C32.1675 35.694 32.5673 34.8159 33.3678 34.1002C34.1675 33.3843 35.1597 33.0263 36.3444 33.0263C37.2402 33.0263 37.9843 33.258 38.577 33.721C39.1687 34.1843 39.4651 34.823 39.4651 35.6374C39.465 36.6761 39.057 37.5397 38.2408 38.2267V38.2267Z" fill="#003087"/>
<path d="M81.0177 24.8344C79.7854 24.0912 78.1775 23.7188 76.1929 23.7188H68.5592C67.9189 23.7188 67.5666 23.9856 67.503 24.5187L64.3824 41.6994C64.3499 41.8681 64.3981 42.0224 64.5265 42.1627C64.6534 42.3033 64.8142 42.3732 65.0063 42.3732H68.9429C69.3269 42.3732 69.5829 42.1909 69.7113 41.8259L70.5755 36.9413C70.6073 36.7169 70.7193 36.5344 70.9117 36.3938C71.1037 36.2535 71.3435 36.1617 71.6319 36.1198C71.9196 36.0781 72.1913 36.057 72.4479 36.057C72.7039 36.057 73.0076 36.0712 73.36 36.0992C73.7119 36.1271 73.9367 36.1409 74.0321 36.1409C76.785 36.1409 78.945 35.4606 80.5135 34.0986C82.0819 32.7373 82.866 30.8496 82.866 28.4347C82.8661 26.7784 82.2497 25.5783 81.0177 24.8341V24.8344ZM76.0969 31.7617C75.3927 32.1827 74.3363 32.3931 72.9284 32.3931L71.3918 32.4353L72.208 27.9294C72.2714 27.621 72.4795 27.4662 72.832 27.4662H73.6959C74.4001 27.4662 74.9601 27.4944 75.3768 27.5504C75.7921 27.6068 76.1929 27.782 76.5769 28.0766C76.9612 28.3715 77.153 28.7998 77.153 29.361C77.153 30.5406 76.8006 31.3403 76.0969 31.7617Z" fill="#009CDE"/>
</g>
<defs>
<clipPath id="clip0_30_138">
<rect width="118" height="69" rx="20" fill="white"/>
</clipPath>
</defs>
</svg>
