<svg width="122" height="66" viewBox="0 0 122 66" fill="none" xmlns="http://www.w3.org/2000/svg">
<g clip-path="url(#clip0_30_123)">
<path d="M0 8.25C0 3.69365 4.55177 0 10.1667 0H111.833C117.448 0 122 3.69365 122 8.25V57.75C122 62.3063 117.448 66 111.833 66H10.1667C4.55177 66 0 62.3063 0 57.75V8.25Z" fill="#D8E3F3"/>
<path d="M104.996 20.6973H98.6045C96.6722 20.6973 95.1859 21.1797 94.2941 22.7477L82.106 45.3025H90.7268C90.7268 45.3025 92.2132 42.2872 92.5104 41.5635C93.4023 41.5635 101.874 41.5635 103.064 41.5635C103.361 42.4078 104.104 45.1819 104.104 45.1819H111.833L104.996 20.6973ZM94.8886 36.4977C95.6318 35.0503 98.1586 29.6227 98.1586 29.6227C98.1586 29.7433 98.9018 28.1753 99.199 27.331L99.7936 29.5021C99.7936 29.5021 101.429 35.4122 101.726 36.6183H94.8886V36.4977Z" fill="#3362AB"/>
<path d="M82.7004 37.2214C82.7004 42.2872 77.0523 45.6644 68.2828 45.6644C64.5669 45.6644 60.9996 45.0613 59.0674 44.3376L60.2565 38.7894L61.2969 39.1512C63.9724 40.1161 65.756 40.478 69.026 40.478C71.4041 40.478 73.9309 39.7543 73.9309 38.0657C73.9309 36.9802 72.8905 36.2565 69.6205 35.0504C66.4992 33.8442 62.3374 31.9144 62.3374 28.4166C62.3374 23.592 68.1341 20.3354 76.3091 20.3354C79.4304 20.3354 82.1059 20.8179 83.7409 21.421L82.5518 26.728L81.9572 26.2455C80.4709 25.7631 78.5386 25.2806 75.7146 25.2806C72.5932 25.4012 71.1069 26.4868 71.1069 27.4517C71.1069 28.5372 72.8905 29.3815 75.7146 30.467C80.4709 32.2762 82.7004 34.3267 82.7004 37.2214Z" fill="#3362AB"/>
<path d="M10.1665 20.9385L10.3151 20.4561H23.0978C24.8814 20.4561 26.2191 20.9385 26.665 22.5065L29.4891 33.3618C26.665 27.5723 20.1251 22.8683 10.1665 20.9385Z" fill="#F9B50B"/>
<path d="M47.4739 20.6973L34.5426 45.1819H25.7731L18.3413 24.6775C23.6922 27.4517 28.1513 31.7938 29.7862 34.8091L30.6781 37.342L38.7044 20.5767H47.4739V20.6973Z" fill="#3362AB"/>
<path d="M50.8927 20.5767H59.0676L53.8654 45.1819H45.6904L50.8927 20.5767Z" fill="#3362AB"/>
</g>
<defs>
<clipPath id="clip0_30_123">
<rect width="122" height="66" rx="20" fill="white"/>
</clipPath>
</defs>
</svg>
